<?xml version="1.0" standalone="no"?>
<!DOCTYPE svg PUBLIC "-//W3C//DTD SVG 20010904//EN"
 "http://www.w3.org/TR/2001/REC-SVG-20010904/DTD/svg10.dtd">
<svg version="1.0" xmlns="http://www.w3.org/2000/svg"
 width="1280.000000pt" height="1085.000000pt" viewBox="0 0 1280.000000 1085.000000"
 preserveAspectRatio="xMidYMid meet">
<g transform="translate(0.000000,1085.000000) scale(0.100000,-0.100000)"
fill="#000000" stroke="none">
<path d="M3453 10827 c-46 -19 -256 -225 -1731 -1698 -1559 -1557 -1680 -1680
-1701 -1733 -21 -51 -22 -61 -11 -102 7 -25 27 -64 43 -87 17 -23 766 -923
1666 -2001 1522 -1824 1638 -1960 1685 -1982 102 -47 198 -19 268 79 l23 32 5
1165 5 1165 25 12 c59 28 487 91 785 115 208 17 803 17 1005 0 1143 -96 2155
-431 3125 -1034 841 -522 1627 -1261 2311 -2173 486 -647 936 -1406 1336
-2250 59 -126 121 -242 136 -258 29 -31 119 -77 152 -77 39 0 127 48 158 86
46 55 69 132 54 181 -6 21 -23 126 -37 233 -277 2069 -902 3804 -1838 5100
-653 903 -1457 1604 -2407 2098 -701 365 -1511 619 -2345 736 -425 59 -714 79
-1180 79 -436 0 -688 -15 -1068 -64 -87 -11 -165 -18 -173 -15 -12 5 -14 161
-14 1113 0 742 -4 1120 -11 1146 -14 53 -65 106 -127 134 -64 28 -73 28 -139
0z"/>
</g>
</svg>
