<?xml version="1.0" standalone="no"?>
<!DOCTYPE svg PUBLIC "-//W3C//DTD SVG 20010904//EN"
 "http://www.w3.org/TR/2001/REC-SVG-20010904/DTD/svg10.dtd">
<svg version="1.0" xmlns="http://www.w3.org/2000/svg"
 width="1280.000000pt" height="1280.000000pt" viewBox="0 0 1280.000000 1280.000000"
 preserveAspectRatio="xMidYMid meet">
<g transform="translate(0.000000,1280.000000) scale(0.100000,-0.100000)"
fill="#000000" stroke="none">
<path d="M6120 12774 c-674 -44 -1156 -133 -1717 -319 -614 -203 -1146 -474
-1717 -875 -102 -71 -396 -307 -507 -406 -36 -33 -108 -95 -159 -139 -187
-162 -546 -577 -797 -924 -632 -871 -1039 -1932 -1152 -2996 -102 -959 -8
-1859 284 -2740 204 -612 540 -1258 920 -1766 41 -56 81 -111 87 -123 39 -73
370 -446 560 -631 442 -429 946 -801 1463 -1079 694 -374 1439 -612 2220 -711
550 -69 1318 -59 1795 25 459 81 706 142 1065 263 505 171 1028 427 1465 719
91 61 199 136 240 167 41 32 104 77 139 101 212 143 648 550 906 845 141 160
221 265 425 555 229 324 461 733 612 1080 218 497 379 1045 458 1550 11 74 25
162 30 195 5 33 16 148 25 255 8 107 20 234 25 281 13 111 13 491 0 594 -5 44
-17 168 -25 275 -52 657 -234 1371 -510 1995 -55 126 -189 398 -235 480 -185
329 -312 524 -507 783 -69 92 -174 223 -232 291 -58 68 -135 158 -171 201 -94
111 -147 165 -314 322 -150 140 -405 358 -461 394 -16 10 -79 55 -140 100
-621 458 -1349 813 -2080 1012 -556 152 -1037 219 -1630 226 -170 2 -335 2
-365 0z m-1064 -4214 c738 -737 1348 -1340 1355 -1340 8 0 617 603 1354 1340
737 737 1344 1340 1350 1340 15 0 795 -783 795 -799 0 -7 -535 -548 -1188
-1202 -654 -654 -1258 -1262 -1342 -1350 l-153 -161 1341 -1341 c738 -738
1342 -1347 1342 -1353 0 -15 -778 -794 -793 -794 -7 0 -616 604 -1354 1342
l-1342 1342 -113 -108 c-62 -60 -669 -664 -1349 -1343 -679 -678 -1242 -1233
-1250 -1233 -16 0 -799 779 -799 795 0 6 603 613 1340 1350 737 737 1340 1344
1340 1348 0 14 -143 159 -1437 1457 -684 685 -1243 1250 -1243 1255 0 13 782
795 794 795 5 0 614 -603 1352 -1340z"/>
</g>
</svg>
